<svg xmlns="http://www.w3.org/2000/svg" xmlns:xlink="http://www.w3.org/1999/xlink" id="Layer_1" width="27" height="56" x="0" y="0" enable-background="new 0 0 27 56" version="1.1" viewBox="0 0 27 56" xml:space="preserve"><circle cx="13.5" cy="13.5" r="13.5" fill="#212121"/><g><g><rect width="1.031" height=".984" x="6.984" y="6.938" fill="#FFF"/><rect width="1.031" height=".984" x="7.984" y="7.938" fill="#FFF"/><rect width="1.031" height=".984" x="8.984" y="8.938" fill="#FFF"/><rect width="1.031" height=".984" x="9.984" y="9.938" fill="#FFF"/><rect width="1.031" height=".984" x="10.984" y="10.938" fill="#FFF"/><rect width="1.031" height=".984" x="11.984" y="11.938" fill="#FFF"/><rect width="1.031" height=".984" x="12.984" y="12.938" fill="#FFF"/><rect width="1.031" height=".984" x="13.984" y="13.938" fill="#FFF"/><rect width="1.031" height=".984" x="14.984" y="14.938" fill="#FFF"/><rect width="1.031" height=".984" x="15.984" y="15.938" fill="#FFF"/><rect width="1.031" height=".984" x="16.984" y="16.938" fill="#FFF"/><rect width="1.031" height=".984" x="17.984" y="17.938" fill="#FFF"/><rect width="1.031" height=".984" x="18.984" y="18.938" fill="#FFF"/></g><g><rect width="1.031" height=".984" x="18.984" y="6.938" fill="#FFF"/><rect width="1.031" height=".984" x="17.984" y="7.938" fill="#FFF"/><rect width="1.031" height=".984" x="16.984" y="8.938" fill="#FFF"/><rect width="1.031" height=".984" x="15.984" y="9.938" fill="#FFF"/><rect width="1.031" height=".984" x="14.984" y="10.938" fill="#FFF"/><rect width="1.031" height=".984" x="13.984" y="11.938" fill="#FFF"/><rect width="1.031" height=".984" x="12.984" y="12.938" fill="#FFF"/><rect width="1.031" height=".984" x="11.984" y="13.938" fill="#FFF"/><rect width="1.031" height=".984" x="10.984" y="14.938" fill="#FFF"/><rect width="1.031" height=".984" x="9.984" y="15.938" fill="#FFF"/><rect width="1.031" height=".984" x="8.984" y="16.938" fill="#FFF"/><rect width="1.031" height=".984" x="7.984" y="17.938" fill="#FFF"/><rect width="1.031" height=".984" x="6.984" y="18.938" fill="#FFF"/></g></g><circle cx="13.5" cy="42.5" r="13.5" fill="#FFF"/><g><g><rect width="1.031" height=".984" x="6.984" y="35.938" fill="#212121"/><rect width="1.031" height=".984" x="7.984" y="36.938" fill="#212121"/><rect width="1.031" height=".984" x="8.984" y="37.938" fill="#212121"/><rect width="1.031" height=".984" x="9.984" y="38.938" fill="#212121"/><rect width="1.031" height=".984" x="10.984" y="39.938" fill="#212121"/><rect width="1.031" height=".984" x="11.984" y="40.938" fill="#212121"/><rect width="1.031" height=".984" x="12.984" y="41.938" fill="#212121"/><rect width="1.031" height=".984" x="13.984" y="42.938" fill="#212121"/><rect width="1.031" height=".984" x="14.984" y="43.938" fill="#212121"/><rect width="1.031" height=".984" x="15.984" y="44.938" fill="#212121"/><rect width="1.031" height=".984" x="16.984" y="45.938" fill="#212121"/><rect width="1.031" height=".984" x="17.984" y="46.938" fill="#212121"/><rect width="1.031" height=".984" x="18.984" y="47.938" fill="#212121"/></g><g><rect width="1.031" height=".984" x="18.984" y="35.938" fill="#212121"/><rect width="1.031" height=".984" x="17.984" y="36.938" fill="#212121"/><rect width="1.031" height=".984" x="16.984" y="37.938" fill="#212121"/><rect width="1.031" height=".984" x="15.984" y="38.938" fill="#212121"/><rect width="1.031" height=".984" x="14.984" y="39.938" fill="#212121"/><rect width="1.031" height=".984" x="13.984" y="40.938" fill="#212121"/><rect width="1.031" height=".984" x="12.984" y="41.938" fill="#212121"/><rect width="1.031" height=".984" x="11.984" y="42.938" fill="#212121"/><rect width="1.031" height=".984" x="10.984" y="43.938" fill="#212121"/><rect width="1.031" height=".984" x="9.984" y="44.938" fill="#212121"/><rect width="1.031" height=".984" x="8.984" y="45.938" fill="#212121"/><rect width="1.031" height=".984" x="7.984" y="46.938" fill="#212121"/><rect width="1.031" height=".984" x="6.984" y="47.938" fill="#212121"/></g></g></svg>